<svg width="161" height="61" viewBox="0 0 161 61" fill="none" xmlns="http://www.w3.org/2000/svg">
<path d="M3.6 48V12.2H16.2C17.9 12.2 19.4833 12.4833 20.95 13.05C22.45 13.5833 23.75 14.35 24.85 15.35C25.95 16.35 26.8167 17.55 27.45 18.95C28.0833 20.3167 28.4 21.8333 28.4 23.5C28.4 25.2 28.0833 26.75 27.45 28.15C26.8167 29.5167 25.95 30.7 24.85 31.7C23.75 32.7 22.45 33.4833 20.95 34.05C19.4833 34.5833 17.9 34.85 16.2 34.85H10.35V48H3.6ZM16.3 28.45C18.0667 28.45 19.4 27.95 20.3 26.95C21.2 25.95 21.65 24.8 21.65 23.5C21.65 22.8667 21.5333 22.25 21.3 21.65C21.1 21.05 20.7667 20.5333 20.3 20.1C19.8667 19.6333 19.3167 19.2667 18.65 19C17.9833 18.7333 17.2 18.6 16.3 18.6H10.35V28.45H16.3ZM42.232 22.7C44.132 22.7 45.8654 23.0333 47.432 23.7C49.032 24.3333 50.3987 25.2333 51.532 26.4C52.6987 27.5333 53.5987 28.9 54.232 30.5C54.8987 32.1 55.232 33.85 55.232 35.75C55.232 37.65 54.8987 39.4 54.232 41C53.5987 42.6 52.6987 43.9833 51.532 45.15C50.3987 46.2833 49.032 47.1833 47.432 47.85C45.8654 48.4833 44.132 48.8 42.232 48.8C40.332 48.8 38.582 48.4833 36.982 47.85C35.4154 47.1833 34.0487 46.2833 32.882 45.15C31.7487 43.9833 30.8487 42.6 30.182 41C29.5487 39.4 29.232 37.65 29.232 35.75C29.232 33.85 29.5487 32.1 30.182 30.5C30.8487 28.9 31.7487 27.5333 32.882 26.4C34.0487 25.2333 35.4154 24.3333 36.982 23.7C38.582 23.0333 40.332 22.7 42.232 22.7ZM42.232 42.75C43.0654 42.75 43.8654 42.6 44.632 42.3C45.432 41.9667 46.132 41.5 46.732 40.9C47.332 40.3 47.7987 39.5667 48.132 38.7C48.4987 37.8333 48.682 36.85 48.682 35.75C48.682 34.65 48.4987 33.6667 48.132 32.8C47.7987 31.9333 47.332 31.2 46.732 30.6C46.132 30 45.432 29.55 44.632 29.25C43.8654 28.9167 43.0654 28.75 42.232 28.75C41.3654 28.75 40.5487 28.9167 39.782 29.25C39.0154 29.55 38.332 30 37.732 30.6C37.132 31.2 36.6487 31.9333 36.282 32.8C35.9487 33.6667 35.782 34.65 35.782 35.75C35.782 36.85 35.9487 37.8333 36.282 38.7C36.6487 39.5667 37.132 40.3 37.732 40.9C38.332 41.5 39.0154 41.9667 39.782 42.3C40.5487 42.6 41.3654 42.75 42.232 42.75ZM65.1023 26.9H65.5023C66.169 25.6667 67.1357 24.6833 68.4023 23.95C69.7023 23.1833 71.1357 22.8 72.7023 22.8C73.269 22.8 73.719 22.8167 74.0523 22.85C74.3857 22.8833 74.7023 22.95 75.0023 23.05V29.55C74.6357 29.3833 74.219 29.25 73.7523 29.15C73.319 29.05 72.7857 29 72.1523 29C70.0857 29 68.4523 29.6333 67.2523 30.9C66.0857 32.1333 65.5023 33.8333 65.5023 36V48H58.9523V23.5H65.1023V26.9ZM82.2523 29.1H77.9523V23.5H82.2523V16H88.8023V23.5H94.8023V29.1H88.8023V38.6C88.8023 39.1667 88.8523 39.7 88.9523 40.2C89.0857 40.6667 89.319 41.0667 89.6523 41.4C90.119 41.9333 90.7857 42.2 91.6523 42.2C92.219 42.2 92.669 42.15 93.0023 42.05C93.3357 41.9167 93.6523 41.75 93.9523 41.55L95.8023 47.3C95.0357 47.6667 94.2023 47.9333 93.3023 48.1C92.4357 48.3 91.469 48.4 90.4023 48.4C89.169 48.4 88.0523 48.2167 87.0523 47.85C86.0857 47.45 85.269 46.9167 84.6023 46.25C83.0357 44.75 82.2523 42.6167 82.2523 39.85V29.1Z" fill="#1E1E1E"/>
<path d="M105.026 33.5V48H100.426V12.2H112.626C115.726 12.2 118.36 13.2333 120.526 15.3C122.726 17.3667 123.826 19.8833 123.826 22.85C123.826 25.8833 122.726 28.4167 120.526 30.45C118.393 32.4833 115.76 33.5 112.626 33.5H105.026ZM105.026 16.6V29.1H112.726C114.56 29.1 116.076 28.4833 117.276 27.25C118.51 26.0167 119.126 24.55 119.126 22.85C119.126 21.1833 118.51 19.7333 117.276 18.5C116.076 17.2333 114.56 16.6 112.726 16.6H105.026ZM130.222 40.5C130.222 41.7 130.722 42.7 131.722 43.5C132.756 44.3 133.956 44.7 135.322 44.7C137.256 44.7 138.972 43.9833 140.472 42.55C142.006 41.1167 142.772 39.4333 142.772 37.5C141.339 36.3667 139.339 35.8 136.772 35.8C134.906 35.8 133.339 36.25 132.072 37.15C130.839 38.05 130.222 39.1667 130.222 40.5ZM136.172 22.7C139.572 22.7 142.256 23.6167 144.222 25.45C146.189 27.25 147.172 29.7333 147.172 32.9V48H142.772V44.6H142.572C140.672 47.4 138.139 48.8 134.972 48.8C132.272 48.8 130.006 48 128.172 46.4C126.372 44.8 125.472 42.8 125.472 40.4C125.472 37.8667 126.422 35.85 128.322 34.35C130.256 32.85 132.822 32.1 136.022 32.1C138.756 32.1 141.006 32.6 142.772 33.6V32.55C142.772 30.95 142.139 29.6 140.872 28.5C139.606 27.3667 138.122 26.8 136.422 26.8C133.856 26.8 131.822 27.8833 130.322 30.05L126.272 27.5C128.506 24.3 131.806 22.7 136.172 22.7ZM158.311 15.05C158.311 15.95 157.994 16.7167 157.361 17.35C156.727 17.9833 155.961 18.3 155.061 18.3C154.161 18.3 153.394 17.9833 152.761 17.35C152.127 16.7167 151.811 15.95 151.811 15.05C151.811 14.15 152.127 13.3833 152.761 12.75C153.394 12.1167 154.161 11.8 155.061 11.8C155.961 11.8 156.727 12.1167 157.361 12.75C157.994 13.3833 158.311 14.15 158.311 15.05ZM157.361 23.5V48H152.761V23.5H157.361Z" fill="#34B3F1"/>
<circle cx="155" cy="15" r="4" fill="#FD841F"/>
</svg>
