<svg width="43" height="43" viewBox="0 0 43 43" fill="none" xmlns="http://www.w3.org/2000/svg">
<path d="M34.0417 5.375C34.992 5.375 35.9035 5.75253 36.5755 6.42453C37.2475 7.09654 37.625 8.00797 37.625 8.95833V34.0417C37.625 34.992 37.2475 35.9035 36.5755 36.5755C35.9035 37.2475 34.992 37.625 34.0417 37.625H8.95833C8.00797 37.625 7.09654 37.2475 6.42453 36.5755C5.75253 35.9035 5.375 34.992 5.375 34.0417V8.95833C5.375 8.00797 5.75253 7.09654 6.42453 6.42453C7.09654 5.75253 8.00797 5.375 8.95833 5.375H34.0417ZM33.1458 33.1458V23.65C33.1458 22.1009 32.5305 20.6153 31.4351 19.5199C30.3397 18.4245 28.8541 17.8092 27.305 17.8092C25.7821 17.8092 24.0083 18.7408 23.1483 20.1383V18.1496H18.1496V33.1458H23.1483V24.3129C23.1483 22.9333 24.2592 21.8046 25.6388 21.8046C26.304 21.8046 26.942 22.0689 27.4124 22.5393C27.8828 23.0097 28.1471 23.6477 28.1471 24.3129V33.1458H33.1458ZM12.3267 15.3367C13.125 15.3367 13.8906 15.0195 14.4551 14.4551C15.0195 13.8906 15.3367 13.125 15.3367 12.3267C15.3367 10.6604 13.9929 9.29875 12.3267 9.29875C11.5236 9.29875 10.7535 9.61776 10.1856 10.1856C9.61776 10.7535 9.29875 11.5236 9.29875 12.3267C9.29875 13.9929 10.6604 15.3367 12.3267 15.3367ZM14.8171 33.1458V18.1496H9.85417V33.1458H14.8171Z" fill="#1E1E1E"/>
</svg>
